<svg width="121" height="45" viewBox="0 0 121 45" fill="none" xmlns="http://www.w3.org/2000/svg">
<path fill-rule="evenodd" clip-rule="evenodd" d="M63.8711 37.699V26.6193L50.9896 21.63L57.7505 15.0648L48.8898 7.20581L46.3768 12.0162L46.4732 7.39162L35.2441 10.977L35.5333 17.0055L37.4404 16.51L39.4232 37.7816L47.3407 36.6186L47.3269 29.5166L63.8711 37.699Z" fill="#0B0000"/>
<path fill-rule="evenodd" clip-rule="evenodd" d="M37.3574 12.5245L44.1802 10.4943L44.6002 17.5206L49.6261 10.4668L54.535 15.1395L47.6708 22.3723L61.7984 27.9672V34.4016L45.3851 26.1917L45.4126 34.7939L41.1647 35.372L39.354 13.8526L37.44 14.3481L37.3574 12.5245Z" fill="white"/>
<path fill-rule="evenodd" clip-rule="evenodd" d="M89.0891 8.26465H81.6535L81.4401 9.48272H73.619L69.9631 31.8279L78.8858 33.2318L79.3746 30.0249L81.7086 34.326L83.1268 31.5801L83.6501 36.0877L93.7638 37.8701L89.0891 8.26465Z" fill="#0B0000"/>
<path fill-rule="evenodd" clip-rule="evenodd" d="M83.6092 10.3303H87.3958L91.2307 35.2217L85.6402 34.3684L84.1531 24.5206L82.0532 29.9503L78.9 23.1649H78.8656L77.6194 31.0307L72.3801 30.1155L75.4989 11.4796H80.8002L82.1221 18.7055L83.6092 10.3303Z" fill="white"/>
<path fill-rule="evenodd" clip-rule="evenodd" d="M98.5563 10.302L109.744 12.7588L110.577 16.8879L111.479 13.1648L121.001 15.4702L111.858 43.0043L104.842 40.7952L104.787 38.0356L98.0537 37.0928L100.326 16.8879L98.6389 16.5094L98.5563 10.302Z" fill="#0B0000"/>
<path fill-rule="evenodd" clip-rule="evenodd" d="M100.546 12.8823L107.837 14.3481L110.295 25.9784L112.808 15.5525L118.357 16.7843L110.543 40.4439L106.66 39.2809L106.322 24.9805L104.367 36.012L100.133 35.3445L102.033 15.3116L100.436 14.8849L100.546 12.8823Z" fill="white"/>
<path fill-rule="evenodd" clip-rule="evenodd" d="M97.4822 33.9131C95.0656 34.8215 92.4976 34.7183 90.4322 33.6172C88.5182 32.6056 87.1825 30.8507 86.6662 28.683C85.6335 24.3612 88.4906 19.427 93.0346 17.6859C95.4787 16.7637 98.0674 16.8738 100.147 17.9818C102.04 18.9865 103.362 20.7001 103.864 22.8059C104.918 27.1896 102.061 32.172 97.4822 33.9131Z" fill="#0B0000"/>
<path fill-rule="evenodd" clip-rule="evenodd" d="M102.094 23.2058C101.267 19.7374 97.5634 17.9963 93.763 19.4277C90.0797 20.8385 87.6631 24.823 88.4962 28.2914C89.3499 31.87 93.0195 33.6042 96.8198 32.1728C100.531 30.7689 102.947 26.7568 102.094 23.2058Z" fill="white"/>
<path fill-rule="evenodd" clip-rule="evenodd" d="M99.3334 23.8171C99.2577 25.7303 97.5916 27.1754 95.5537 27.0928C93.5502 27.0103 92.008 25.4412 92.0837 23.5281C92.1595 21.7319 93.8187 20.2868 95.8566 20.3693C97.8669 20.4519 99.4091 22.021 99.3334 23.8171Z" fill="#0B0000"/>
<path fill-rule="evenodd" clip-rule="evenodd" d="M96.7441 20.4519C95.5255 20.4038 94.5065 21.2433 94.4583 22.3238C94.417 23.4042 95.3671 24.3264 96.5857 24.3745C97.8043 24.4227 98.8233 23.5831 98.8715 22.5027C98.9128 21.4223 97.9627 20.5001 96.7441 20.4519Z" fill="white"/>
<path fill-rule="evenodd" clip-rule="evenodd" d="M35.8006 36.3227C33.329 37.3688 30.6508 37.3688 28.4545 36.3159C26.4235 35.3386 24.9571 33.5769 24.3305 31.3403C23.0775 26.8878 25.8383 21.637 30.4924 19.6344C32.9916 18.5815 35.6904 18.5815 37.9004 19.6482C39.9108 20.6116 41.3566 22.339 41.9694 24.5067C43.2499 29.0212 40.4822 34.327 35.8006 36.3227Z" fill="#0B0000"/>
<path fill-rule="evenodd" clip-rule="evenodd" d="M40.2004 24.7815C39.1814 21.1755 35.2295 19.5101 31.3052 21.1755C27.4979 22.8134 25.1365 27.0938 26.1554 30.6999C27.2019 34.4229 31.1262 36.0814 35.0505 34.4229C38.8854 32.7851 41.2468 28.4702 40.2004 24.7815Z" fill="white"/>
<path fill-rule="evenodd" clip-rule="evenodd" d="M37.5434 25.4693C37.5434 27.3825 35.9392 28.8896 33.9013 28.8896C31.8979 28.8896 30.2937 27.3825 30.2937 25.4693C30.2937 23.6732 31.8979 22.1592 33.9357 22.1592C35.9392 22.1592 37.5434 23.6663 37.5434 25.4693Z" fill="#0B0000"/>
<path fill-rule="evenodd" clip-rule="evenodd" d="M34.8233 22.207C33.6047 22.207 32.6133 23.0879 32.6133 24.1683C32.6133 25.2488 33.5978 26.1297 34.8233 26.1297C36.0419 26.1297 37.0333 25.2488 37.0333 24.1683C37.0333 23.0879 36.0419 22.207 34.8233 22.207Z" fill="white"/>
<path fill-rule="evenodd" clip-rule="evenodd" d="M22.1621 29.675C27.4772 25.773 30.0108 19.8753 28.0899 15.4503C27.25 13.5165 25.7766 11.9199 23.9728 10.9152C22.706 10.0756 21.1982 9.54573 19.6147 9.3668C15.7317 8.68551 11.0707 9.38745 6.48546 11.335C4.79869 12.0507 3.22208 12.8765 1.80381 13.778L0 14.9135L1.08091 16.7441L4.44068 22.4216C4.44068 22.4216 5.4734 24.1695 5.48028 24.1626L7.30475 23.2749L7.55949 23.151L15.9107 41.7938L16.7162 43.583L18.5889 42.9843L23.1122 41.5392L25.095 40.906L24.5718 38.8965L22.1621 29.675Z" fill="black"/>
<path fill-rule="evenodd" clip-rule="evenodd" d="M26.0711 16.3232C25.4033 14.7886 24.2536 13.5843 22.7527 12.7378C21.6649 12.0152 20.405 11.6574 19.2277 11.5266C15.8817 10.9417 11.7164 11.4922 7.33077 13.3503C5.76793 14.0109 4.30835 14.7679 2.96582 15.6213L6.32559 21.2987C7.18619 20.879 8.11564 20.4316 8.61822 20.1633L17.9058 40.8843L22.4291 39.4391L19.6408 28.7173C24.9902 25.4347 27.6891 20.0463 26.0711 16.3232Z" fill="white"/>
<path fill-rule="evenodd" clip-rule="evenodd" d="M73.5854 21.7745L70.4046 18.9117L71.9675 17.2532L73.372 15.7598L72.0777 14.1701C69.5509 11.0596 65.5096 9.81397 61.2685 10.8394C55.3683 12.257 52.0429 17.3358 53.3579 22.9031C53.8881 25.1466 55.2925 27.0666 57.3236 28.3122C59.747 29.8056 62.797 30.2116 65.902 29.4615C69.1792 28.6701 71.5888 27.3419 73.7025 25.1604L75.3961 23.4124L73.5854 21.7745Z" fill="#0B0000"/>
<path fill-rule="evenodd" clip-rule="evenodd" d="M68.6952 20.4185C67.8965 21.3613 66.9809 22.2215 65.3561 22.6137C64.8122 22.7445 64.0755 22.8684 63.6073 22.7858L70.4439 15.5117C68.5162 13.1375 65.3492 12.0364 61.7622 12.9035C57.3009 13.9771 54.2853 17.6933 55.4007 22.4279C56.2957 26.2336 60.5092 28.5665 65.3974 27.3897C68.3578 26.674 70.4164 25.5316 72.2615 23.6254L68.6952 20.4185Z" fill="white"/>
<path fill-rule="evenodd" clip-rule="evenodd" d="M58.0181 9.64138L66.39 0L71.0234 6.91619L60.4415 12.6005L58.0181 9.64138Z" fill="#0B0000"/>
<path fill-rule="evenodd" clip-rule="evenodd" d="M66.0314 3.06909L68.4823 6.39988L61.4805 9.8683L60.9917 9.13195L66.0314 3.06909Z" fill="white"/>
<path fill-rule="evenodd" clip-rule="evenodd" d="M60.8419 20.5281C60.3394 19.6128 60.4357 18.436 61.1862 17.6171C61.9091 16.8257 63.0106 16.5986 63.9539 16.9633L60.8419 20.5281ZM61.1862 17.6171C60.4426 18.436 60.3394 19.6128 60.8419 20.5281L63.9539 16.9633C63.0106 16.5986 61.9022 16.8257 61.1862 17.6171ZM65.6819 16.4266C64.0847 14.9745 61.6199 15.0915 60.1672 16.6881C58.7145 18.2846 58.8316 20.7483 60.4288 22.2004C60.5597 22.3242 60.7042 22.4275 60.8488 22.5238L65.9642 16.7018C65.8678 16.6055 65.7783 16.516 65.6819 16.4266ZM60.8419 20.5281C60.3394 19.6128 60.4357 18.436 61.1862 17.6171C61.9091 16.8257 63.0106 16.5986 63.9539 16.9633L60.8419 20.5281Z" fill="black"/>
<path fill-rule="evenodd" clip-rule="evenodd" d="M22.5549 19.8679C22.1556 17.6726 19.2984 16.4407 16.4343 17.9754L17.1503 20.4941L18.2794 24.2103L18.7958 25.9032C20.9439 24.5475 23.1057 22.9096 22.5549 19.8679ZM19.7115 23.2262C19.4017 22.2077 18.7338 20.0124 18.7338 20.0124C18.7407 20.0261 18.5961 19.5375 18.4447 18.9939C19.0505 18.8838 19.6289 18.9388 20.1108 19.1728C20.3793 19.3035 20.8406 19.5995 20.937 20.1638C21.1642 21.4231 20.7304 22.3246 19.7115 23.2262Z" fill="black"/>
<path fill-rule="evenodd" clip-rule="evenodd" d="M23.7817 44.9248C23.7886 44.9455 23.7955 44.9592 23.8024 44.9799C23.8024 44.9867 23.8093 44.9936 23.8093 45.0005C23.8024 44.973 23.7886 44.9523 23.7817 44.9248Z" fill="black"/>
<path fill-rule="evenodd" clip-rule="evenodd" d="M113.874 40.5066H115.932V40.8094H115.078V43.046H114.727V40.8094H113.874V40.5066Z" fill="black"/>
<path fill-rule="evenodd" clip-rule="evenodd" d="M116.237 43.046V40.5066H116.733L117.462 42.6537L118.185 40.5066H118.674V43.046H118.35V41.5457C118.35 41.4907 118.35 41.4081 118.357 41.2911C118.357 41.1741 118.357 41.0434 118.357 40.9057L117.634 43.046H117.297L116.567 40.9057V40.9814C116.567 41.0434 116.567 41.1397 116.574 41.2636C116.574 41.3875 116.581 41.4838 116.581 41.5457V43.046H116.237Z" fill="black"/>
</svg>
